ply
format ascii 1.0
comment Created by Blender 2.91.0 - www.blender.org
element vertex 282
property float x
property float y
property float z
element face 564
property list uchar uint vertex_indices
end_header
-0.773011 0.000000 -0.634393
-0.644808 0.000000 -0.644806
-0.707108 0.000000 -0.707106
0.995185 0.000000 0.098017
0.894373 0.000000 0.177902
0.980785 0.000000 0.195090
-0.758213 0.000000 -0.506621
-0.831470 0.000000 -0.555570
0.911895 0.000000 -0.000000
1.000000 0.000000 -0.000000
-0.881922 0.000000 -0.471396
0.907504 0.000000 -0.089382
0.995185 0.000000 -0.098017
-0.923880 0.000000 -0.382683
-0.804220 0.000000 -0.429864
0.980785 0.000000 -0.195091
-0.956940 0.000000 -0.290285
-0.842481 0.000000 -0.348967
0.956940 0.000000 -0.290285
0.894373 0.000000 -0.177902
-0.894373 0.000000 -0.177902
-0.980785 0.000000 -0.195090
0.923879 0.000000 -0.382684
0.872629 0.000000 -0.264709
-0.907504 0.000000 -0.089382
-0.995185 0.000000 -0.098017
0.881921 0.000000 -0.471397
0.842481 0.000000 -0.348967
-1.000000 0.000000 -0.000000
0.831469 0.000000 -0.555571
0.804219 0.000000 -0.429864
-0.907504 0.000000 0.089381
-0.995185 0.000000 0.098016
0.773010 0.000000 -0.634394
0.758213 0.000000 -0.506622
-0.894373 0.000000 0.177901
-0.980785 0.000000 0.195089
0.707106 0.000000 -0.707107
0.704904 0.000000 -0.578500
-0.872629 0.000000 0.264708
-0.956941 0.000000 0.290284
0.634393 0.000000 -0.773011
0.644807 0.000000 -0.644807
-0.842481 0.000000 0.348966
-0.923880 0.000000 0.382682
0.555570 0.000000 -0.831470
0.578499 0.000000 -0.704904
-0.881922 0.000000 0.471395
0.471396 0.000000 -0.881922
0.506621 0.000000 -0.758213
0.089381 0.000000 0.907504
0.000000 0.000000 1.000000
0.098017 0.000000 0.995185
-0.758214 0.000000 0.506620
-0.831471 0.000000 0.555569
0.348966 0.000000 -0.842481
0.382683 0.000000 -0.923880
0.177902 0.000000 0.894373
0.195090 0.000000 0.980785
-0.773012 0.000000 0.634392
0.290284 0.000000 -0.956941
0.264709 0.000000 0.872629
0.290285 0.000000 0.956940
-0.644808 0.000000 0.644806
-0.707108 0.000000 0.707105
0.177901 0.000000 -0.894373
0.195090 0.000000 -0.980785
0.382683 0.000000 0.923880
-0.578501 0.000000 0.704903
-0.634395 0.000000 0.773009
0.098016 0.000000 -0.995185
0.429864 0.000000 0.804219
0.471397 0.000000 0.881921
-0.506623 0.000000 0.758211
-0.555572 0.000000 0.831468
-0.000001 0.000000 -1.000000
0.089381 0.000000 -0.907504
0.506621 0.000000 0.758213
0.555570 0.000000 0.831470
-0.429866 0.000000 0.804218
-0.471399 0.000000 0.881920
-0.098018 0.000000 -0.995185
-0.000001 0.000000 -0.911895
0.578500 0.000000 0.704904
0.634393 0.000000 0.773010
-0.348969 0.000000 0.842480
-0.382686 0.000000 0.923878
-0.195091 0.000000 -0.980785
-0.089382 0.000000 -0.907504
0.644807 0.000000 0.644807
0.707107 0.000000 0.707107
-0.264712 0.000000 0.872628
-0.290288 0.000000 0.956939
-0.290286 0.000000 -0.956940
-0.177903 0.000000 -0.894373
0.704904 0.000000 0.578500
0.773010 0.000000 0.634393
-0.177905 0.000000 0.894372
-0.195093 0.000000 0.980785
-0.382684 0.000000 -0.923879
-0.264710 0.000000 -0.872629
0.758213 0.000000 0.506622
0.831470 0.000000 0.555570
-0.089384 0.000000 0.907503
-0.098021 0.000000 0.995184
-0.429865 0.000000 -0.804219
-0.471398 0.000000 -0.881921
0.804219 0.000000 0.429864
0.881921 0.000000 0.471397
-0.000000 0.000000 0.911895
-0.555571 0.000000 -0.831469
0.923880 0.000000 0.382683
-0.578501 0.000000 -0.704904
-0.634394 0.000000 -0.773010
0.872629 0.000000 0.264709
0.956940 0.000000 0.290285
-0.773011 0.402543 -0.634393
-0.644808 0.402543 -0.644806
-0.704905 0.402543 -0.578499
-0.995185 0.402543 -0.098017
-0.947185 1.201904 -0.044138
-1.000000 0.402543 -0.000000
-0.758213 0.402543 -0.506621
-0.831470 0.402543 -0.555570
0.995185 0.402543 -0.098017
0.943348 1.201904 -0.009509
0.980785 0.402543 -0.195091
-0.881922 0.402543 -0.471396
-0.804220 0.402543 -0.429864
-0.907504 0.402543 0.089381
-0.942037 1.201904 -0.035467
-0.942677 1.201904 -0.039782
-0.923880 0.402543 -0.382683
-0.842481 0.402543 -0.348967
-0.946249 1.201904 -0.053647
-0.946951 1.201904 -0.048915
-0.956940 0.402543 -0.290285
-0.872629 0.402543 -0.264709
1.000000 0.402543 -0.000000
0.944050 1.201904 -0.004777
-0.911895 0.402543 -0.000000
-0.942891 1.201904 -0.044138
0.923879 0.402543 -0.382684
0.872629 0.402543 -0.264709
0.842481 0.402543 -0.348967
-0.980785 0.402543 -0.195090
-0.945087 1.201904 -0.058286
0.804219 0.402543 -0.429864
0.881921 0.402543 -0.471397
0.894373 0.402543 -0.177902
0.938076 1.201904 -0.012902
0.939136 1.201904 -0.008671
0.831469 0.402543 -0.555571
0.758213 0.402543 -0.506622
0.944050 1.201904 0.004777
0.944284 1.201904 -0.000000
0.773010 0.402543 -0.634394
0.704904 0.402543 -0.578500
-0.942677 1.201904 -0.048495
-0.907504 0.402543 -0.089382
0.707106 0.402543 -0.707107
0.644807 0.402543 -0.644807
-0.980785 0.402543 0.195089
-0.872629 0.402543 0.264708
-0.956941 0.402543 0.290284
0.634393 0.402543 -0.773011
0.578499 0.402543 -0.704904
-0.842481 0.402543 0.348966
-0.923880 0.402543 0.382682
0.506621 0.402543 -0.758213
0.555570 0.402543 -0.831470
-0.804220 0.402543 0.429863
-0.881922 0.402543 0.471395
0.471396 0.402543 -0.881922
0.429864 0.402543 -0.804220
0.000000 0.402543 1.000000
0.089381 0.402543 0.907504
0.098017 0.402543 0.995185
-0.758214 0.402543 0.506620
-0.831471 0.402543 0.555569
0.348966 0.402543 -0.842481
0.382683 0.402543 -0.923880
0.177902 0.402543 0.894373
0.195090 0.402543 0.980785
-0.773012 0.402543 0.634392
-0.704905 0.402543 0.578499
0.290284 0.402543 -0.956941
0.264708 0.402543 -0.872629
0.264709 0.402543 0.872629
0.290285 0.402543 0.956940
-0.644808 0.402543 0.644806
-0.707108 0.402543 0.707105
0.195090 0.402543 -0.980785
0.177901 0.402543 -0.894373
0.382683 0.402543 0.923880
0.348967 0.402543 0.842481
-0.578501 0.402543 0.704903
-0.634395 0.402543 0.773009
0.098016 0.402543 -0.995185
0.089381 0.402543 -0.907504
0.429864 0.402543 0.804219
0.471397 0.402543 0.881921
-0.506623 0.402543 0.758211
-0.555572 0.402543 0.831468
-0.000001 0.402543 -1.000000
-0.000001 0.402543 -0.911895
0.506621 0.402543 0.758213
0.555570 0.402543 0.831470
-0.429866 0.402543 0.804218
-0.471399 0.402543 0.881920
-0.098018 0.402543 -0.995185
-0.089382 0.402543 -0.907504
0.578500 0.402543 0.704904
0.634393 0.402543 0.773010
-0.348969 0.402543 0.842480
-0.382686 0.402543 0.923878
-0.195091 0.402543 -0.980785
-0.177903 0.402543 -0.894373
0.644807 0.402543 0.644807
0.707107 0.402543 0.707107
-0.264712 0.402543 0.872628
-0.290288 0.402543 0.956939
-0.290286 0.402543 -0.956940
-0.264710 0.402543 -0.872629
0.704904 0.402543 0.578500
0.773010 0.402543 0.634393
-0.177905 0.402543 0.894372
-0.195093 0.402543 0.980785
-0.382684 0.402543 -0.923879
-0.348968 0.402543 -0.842480
0.758213 0.402543 0.506622
0.831470 0.402543 0.555570
-0.089384 0.402543 0.907503
-0.098021 0.402543 0.995184
-0.429865 0.402543 -0.804219
-0.471398 0.402543 -0.881921
0.804219 0.402543 0.429864
0.881921 0.402543 0.471397
-0.000000 0.402543 0.911895
-0.555571 0.402543 -0.831469
-0.506622 0.402543 -0.758212
0.923880 0.402543 0.382683
0.842481 0.402543 0.348967
-0.578501 0.402543 -0.704904
-0.634394 0.402543 -0.773010
0.872629 0.402543 0.264709
0.956940 0.402543 0.290285
-0.707108 0.402543 -0.707106
-0.894373 0.402543 0.177901
-0.946249 1.201904 -0.034630
0.980785 0.402543 0.195090
-0.804220 0.000000 0.429863
0.995185 0.402543 0.098017
-0.704905 0.000000 0.578499
0.348967 0.000000 0.842481
0.956940 0.402543 -0.290285
0.842481 0.000000 0.348967
0.907504 0.000000 0.089381
0.894373 0.402543 0.177902
0.907504 0.402543 0.089381
0.911895 0.402543 -0.000000
0.907504 0.402543 -0.089382
0.429864 0.000000 -0.804220
0.264708 0.000000 -0.872629
-0.348968 0.000000 -0.842480
-0.995185 0.402543 0.098016
-0.506622 0.000000 -0.758212
-0.704905 0.000000 -0.578499
-0.872629 0.000000 -0.264709
-0.894373 0.402543 -0.177902
-0.911895 0.000000 -0.000000
0.943348 1.201904 0.009508
0.939776 1.201904 0.004356
0.939990 1.201904 -0.000000
0.939776 1.201904 -0.004357
0.942186 1.201904 -0.014148
-0.942037 1.201904 -0.052809
-0.946951 1.201904 -0.039361
0.938076 1.201904 0.012902
0.939136 1.201904 0.008671
-0.940977 1.201904 -0.057040
0.942186 1.201904 0.014148
3 0 1 2
3 3 4 5
3 6 0 7
3 8 3 9
3 10 6 7
3 11 9 12
3 13 14 10
3 15 11 12
3 16 17 13
3 18 19 15
3 20 16 21
3 22 23 18
3 24 21 25
3 26 27 22
3 28 24 25
3 29 30 26
3 31 28 32
3 33 34 29
3 35 32 36
3 37 38 33
3 39 36 40
3 41 42 37
3 43 40 44
3 45 46 41
3 47 43 44
3 48 49 45
3 50 51 52
3 53 47 54
3 55 48 56
3 57 52 58
3 59 53 54
3 60 55 56
3 61 58 62
3 63 59 64
3 65 60 66
3 67 61 62
3 68 64 69
3 70 65 66
3 71 67 72
3 73 69 74
3 75 76 70
3 77 72 78
3 79 74 80
3 81 82 75
3 83 78 84
3 85 80 86
3 87 88 81
3 89 84 90
3 91 86 92
3 93 94 87
3 95 90 96
3 97 92 98
3 99 100 93
3 101 96 102
3 103 98 104
3 105 99 106
3 107 102 108
3 109 104 51
3 110 105 106
3 111 107 108
3 112 110 113
3 114 111 115
3 2 112 113
3 4 115 5
3 116 117 118
3 119 120 121
3 116 122 123
3 124 125 126
3 127 122 128
3 129 130 131
3 132 128 133
3 119 134 135
3 136 133 137
3 138 139 124
3 140 131 141
3 142 143 144
3 145 146 134
3 142 147 148
3 149 150 151
3 152 147 153
3 138 154 155
3 156 153 157
3 140 158 159
3 160 157 161
3 162 163 164
3 165 161 166
3 164 167 168
3 165 169 170
3 168 171 172
3 173 169 174
3 175 176 177
3 172 178 179
3 173 180 181
3 177 182 183
3 184 178 185
3 186 180 187
3 183 188 189
3 184 190 191
3 192 187 193
3 194 188 195
3 191 196 197
3 198 193 199
3 194 200 201
3 197 202 203
3 204 199 205
3 201 206 207
3 203 208 209
3 210 205 211
3 207 212 213
3 209 214 215
3 216 211 217
3 213 218 219
3 215 220 221
3 222 217 223
3 219 224 225
3 221 226 227
3 228 223 229
3 225 230 231
3 227 232 233
3 228 234 235
3 231 236 237
3 233 238 175
3 239 234 240
3 241 236 242
3 239 243 244
3 241 245 246
3 247 243 117
3 248 249 130
3 115 250 5
3 251 167 43
3 57 176 50
3 5 252 3
3 53 171 251
3 61 182 57
3 3 138 9
3 253 178 53
3 254 188 61
3 9 124 12
3 63 185 253
3 71 195 254
3 12 126 15
3 68 190 63
3 77 200 71
3 15 255 18
3 73 196 68
3 83 206 77
3 18 142 22
3 79 202 73
3 89 212 83
3 22 148 26
3 85 208 79
3 95 218 89
3 26 152 29
3 91 214 85
3 101 224 95
3 29 156 33
3 97 220 91
3 107 230 101
3 33 160 37
3 103 226 97
3 256 236 107
3 37 165 41
3 109 232 103
3 114 242 256
3 41 170 45
3 4 245 114
3 45 173 48
3 257 258 4
3 48 181 56
3 8 259 257
3 56 186 60
3 11 260 8
3 60 192 66
3 19 261 11
3 66 198 70
3 23 149 19
3 70 204 75
3 27 143 23
3 75 210 81
3 30 144 27
3 81 216 87
3 34 147 30
3 87 222 93
3 38 153 34
3 93 228 99
3 42 157 38
3 99 235 106
3 46 161 42
3 106 239 110
3 49 166 46
3 110 244 113
3 262 169 49
3 113 247 2
3 55 174 262
3 2 116 0
3 263 180 55
3 0 123 7
3 65 187 263
3 7 127 10
3 76 193 65
3 10 132 13
3 82 199 76
3 13 136 16
3 88 205 82
3 16 145 21
3 94 211 88
3 21 119 25
3 100 217 94
3 25 121 28
3 264 223 100
3 28 265 32
3 105 229 264
3 32 162 36
3 266 234 105
3 36 164 40
3 112 240 266
3 40 168 44
3 51 177 52
3 1 243 112
3 44 172 47
3 52 183 58
3 267 117 1
3 47 179 54
3 58 189 62
3 6 118 267
3 54 184 59
3 62 194 67
3 14 122 6
3 59 191 64
3 67 201 72
3 17 128 14
3 64 197 69
3 72 207 78
3 268 133 17
3 69 203 74
3 78 213 84
3 20 137 268
3 74 209 80
3 84 219 90
3 24 269 20
3 80 215 86
3 90 225 96
3 270 159 24
3 86 221 92
3 96 231 102
3 31 140 270
3 92 227 98
3 102 237 108
3 35 129 31
3 98 233 104
3 108 241 111
3 39 248 35
3 104 175 51
3 111 246 115
3 43 163 39
3 50 238 109
3 271 272 154
3 155 272 273
3 139 273 274
3 125 274 151
3 125 150 275
3 146 276 134
3 134 158 135
3 120 158 141
3 120 131 277
3 277 130 249
3 271 278 279
3 258 278 245
3 126 275 255
3 121 277 265
3 259 279 258
3 265 249 162
3 137 146 136
3 260 272 259
3 269 280 137
3 250 281 271
3 143 275 150
3 245 281 246
3 260 274 273
3 159 276 269
3 252 271 154
3 261 151 274
3 271 279 272
3 155 154 272
3 139 155 273
3 125 139 274
3 125 151 150
3 146 280 276
3 134 276 158
3 120 135 158
3 120 141 131
3 277 131 130
3 271 281 278
3 0 267 1
3 3 257 4
3 6 267 0
3 8 257 3
3 10 14 6
3 11 8 9
3 13 17 14
3 15 19 11
3 16 268 17
3 18 23 19
3 20 268 16
3 22 27 23
3 24 20 21
3 26 30 27
3 28 270 24
3 29 34 30
3 31 270 28
3 33 38 34
3 35 31 32
3 37 42 38
3 39 35 36
3 41 46 42
3 43 39 40
3 45 49 46
3 47 251 43
3 48 262 49
3 50 109 51
3 53 251 47
3 55 262 48
3 57 50 52
3 59 253 53
3 60 263 55
3 61 57 58
3 63 253 59
3 65 263 60
3 67 254 61
3 68 63 64
3 70 76 65
3 71 254 67
3 73 68 69
3 75 82 76
3 77 71 72
3 79 73 74
3 81 88 82
3 83 77 78
3 85 79 80
3 87 94 88
3 89 83 84
3 91 85 86
3 93 100 94
3 95 89 90
3 97 91 92
3 99 264 100
3 101 95 96
3 103 97 98
3 105 264 99
3 107 101 102
3 109 103 104
3 110 266 105
3 111 256 107
3 112 266 110
3 114 256 111
3 2 1 112
3 4 114 115
3 116 247 117
3 119 135 120
3 116 118 122
3 124 139 125
3 127 123 122
3 129 248 130
3 132 127 128
3 119 145 134
3 136 132 133
3 138 155 139
3 140 129 131
3 142 255 143
3 145 136 146
3 142 144 147
3 149 143 150
3 152 148 147
3 138 252 154
3 156 152 153
3 140 141 158
3 160 156 157
3 162 248 163
3 165 160 161
3 164 163 167
3 165 166 169
3 168 167 171
3 173 170 169
3 175 238 176
3 172 171 178
3 173 174 180
3 177 176 182
3 184 179 178
3 186 181 180
3 183 182 188
3 184 185 190
3 192 186 187
3 194 189 188
3 191 190 196
3 198 192 193
3 194 195 200
3 197 196 202
3 204 198 199
3 201 200 206
3 203 202 208
3 210 204 205
3 207 206 212
3 209 208 214
3 216 210 211
3 213 212 218
3 215 214 220
3 222 216 217
3 219 218 224
3 221 220 226
3 228 222 223
3 225 224 230
3 227 226 232
3 228 229 234
3 231 230 236
3 233 232 238
3 239 235 234
3 241 237 236
3 239 240 243
3 241 242 245
3 247 244 243
3 248 162 249
3 115 246 250
3 251 171 167
3 57 182 176
3 5 250 252
3 53 178 171
3 61 188 182
3 3 252 138
3 253 185 178
3 254 195 188
3 9 138 124
3 63 190 185
3 71 200 195
3 12 124 126
3 68 196 190
3 77 206 200
3 15 126 255
3 73 202 196
3 83 212 206
3 18 255 142
3 79 208 202
3 89 218 212
3 22 142 148
3 85 214 208
3 95 224 218
3 26 148 152
3 91 220 214
3 101 230 224
3 29 152 156
3 97 226 220
3 107 236 230
3 33 156 160
3 103 232 226
3 256 242 236
3 37 160 165
3 109 238 232
3 114 245 242
3 41 165 170
3 4 258 245
3 45 170 173
3 257 259 258
3 48 173 181
3 8 260 259
3 56 181 186
3 11 261 260
3 60 186 192
3 19 149 261
3 66 192 198
3 23 143 149
3 70 198 204
3 27 144 143
3 75 204 210
3 30 147 144
3 81 210 216
3 34 153 147
3 87 216 222
3 38 157 153
3 93 222 228
3 42 161 157
3 99 228 235
3 46 166 161
3 106 235 239
3 49 169 166
3 110 239 244
3 262 174 169
3 113 244 247
3 55 180 174
3 2 247 116
3 263 187 180
3 0 116 123
3 65 193 187
3 7 123 127
3 76 199 193
3 10 127 132
3 82 205 199
3 13 132 136
3 88 211 205
3 16 136 145
3 94 217 211
3 21 145 119
3 100 223 217
3 25 119 121
3 264 229 223
3 28 121 265
3 105 234 229
3 32 265 162
3 266 240 234
3 36 162 164
3 112 243 240
3 40 164 168
3 51 175 177
3 1 117 243
3 44 168 172
3 52 177 183
3 267 118 117
3 47 172 179
3 58 183 189
3 6 122 118
3 54 179 184
3 62 189 194
3 14 128 122
3 59 184 191
3 67 194 201
3 17 133 128
3 64 191 197
3 72 201 207
3 268 137 133
3 69 197 203
3 78 207 213
3 20 269 137
3 74 203 209
3 84 213 219
3 24 159 269
3 80 209 215
3 90 219 225
3 270 140 159
3 86 215 221
3 96 225 231
3 31 129 140
3 92 221 227
3 102 231 237
3 35 248 129
3 98 227 233
3 108 237 241
3 39 163 248
3 104 233 175
3 111 241 246
3 43 167 163
3 50 176 238
3 258 279 278
3 126 125 275
3 121 120 277
3 259 272 279
3 265 277 249
3 137 280 146
3 260 273 272
3 269 276 280
3 250 246 281
3 143 255 275
3 245 278 281
3 260 261 274
3 159 158 276
3 252 250 271
3 261 149 151
