ply
format ascii 1.0
comment Created by Blender 2.91.0 - www.blender.org
element vertex 149
property float x
property float y
property float z
element face 266
property list uchar uint vertex_indices
end_header
0.328423 -0.202975 -0.054850
0.543014 -0.572860 0.298024
0.089747 -0.155735 0.432864
1.086652 -0.367030 0.366450
0.671359 -0.370526 0.790297
0.945967 0.178688 0.787750
0.472414 0.229173 0.873591
0.635283 0.264741 -0.105227
0.187739 0.342742 0.366451
0.731376 0.548573 0.298025
1.184643 0.131448 0.300037
0.806911 -0.099424 -0.155880
-1.254613 -0.396107 -1.001528
-1.177600 -0.704056 -0.490656
-1.481813 -0.396106 -0.292500
-0.817467 -0.730053 -0.683925
-0.639713 -0.704057 -0.315887
-1.621207 0.013714 -0.490656
-0.510074 -0.396106 -1.004551
-1.109228 0.013714 -1.195336
-0.277124 -0.396106 -0.297387
-0.139318 -0.062361 -0.490656
-0.877695 -0.396108 0.142685
-0.463057 -0.024323 0.083578
-1.109228 0.013714 0.214024
-0.465661 0.231914 -1.056352
-1.483400 0.347459 -0.297387
-0.882830 0.347461 0.142685
-1.120812 0.655410 -0.315887
-0.582925 0.655409 -0.490656
-0.943058 0.681406 -0.683925
-0.278712 0.347459 -0.292500
-1.250452 0.347459 -1.004551
-1.715582 -0.620397 -0.544996
-1.598319 -1.043893 0.020701
-1.902531 -0.735942 0.218857
-1.238185 -1.069890 -0.172568
-1.060432 -1.043894 0.195470
-2.041926 -0.326124 0.020701
-0.930792 -0.735943 -0.493195
-1.405159 -0.195596 -0.686466
-0.697843 -0.735943 0.213969
-0.560037 -0.402198 0.020701
-1.298413 -0.735945 0.654042
-1.072016 -0.402198 0.725381
-1.718187 -0.364161 0.594934
-0.886380 -0.107923 -0.544996
-1.904119 0.007621 -0.172568
-1.363777 0.341569 -0.172568
-1.801372 0.154981 0.195472
-1.346854 0.117054 0.589816
-1.003644 0.315571 0.020701
-0.699431 0.007621 0.218856
1.421555 -0.860697 0.213970
1.061422 -0.834699 0.020701
1.525732 -0.652344 -0.493194
0.984410 -0.526751 -0.490171
0.757210 -0.526750 0.218857
1.859151 -0.674110 -0.154070
0.617815 -0.116931 0.020701
1.129794 -0.116930 -0.683979
1.961897 -0.526751 0.213970
2.099704 -0.193006 0.020701
1.361327 -0.526752 0.654042
1.775965 -0.154968 0.594935
1.129794 -0.116930 0.725381
1.773360 0.101270 -0.544995
0.858369 0.364176 -0.154070
0.755622 0.216815 0.213970
1.295964 0.550762 0.213970
1.356192 0.216817 0.654042
1.656097 0.524764 0.020701
1.960311 0.216813 0.218857
1.191788 0.342409 -0.493194
0.413117 0.092026 -0.467645
0.661858 -0.336721 -0.058615
0.225804 0.094649 0.339895
0.131396 0.346062 0.020701
1.090597 -0.007720 -0.422926
0.681094 0.458742 -0.589770
1.291693 -0.007720 0.187543
1.410657 0.280390 0.020701
0.773243 -0.007721 0.567441
0.968684 0.280390 0.629025
1.128936 0.534427 -0.467644
0.250360 0.634173 -0.146141
0.880196 0.963174 -0.058614
0.339057 0.761383 0.171574
0.731426 0.728641 0.511997
1.290323 0.634170 0.191761
0.978685 -0.273562 0.171573
0.373270 -0.645130 -0.467644
0.622011 -1.073878 0.100016
0.185957 -0.642508 0.339895
0.875321 -0.853297 -0.422926
1.252162 -0.835293 0.020701
0.091550 -0.391094 0.020701
0.928838 -0.456766 -0.587624
0.733397 -0.744878 0.567441
0.928838 -0.456767 0.629025
0.299211 0.024227 0.171574
0.728963 -0.102983 0.567441
0.840349 0.226018 0.100016
1.250476 -0.102985 0.191761
1.054343 -0.102984 -0.420316
0.587039 0.005437 -0.422926
0.210514 -0.102984 -0.146141
1.370810 -0.456767 0.020701
-1.210918 -0.027912 -0.058615
-0.669780 0.173878 -0.130173
-0.957608 0.192668 0.464327
-0.581083 0.301089 0.187542
-0.462119 0.589199 0.020701
-0.743840 0.843236 0.509046
-1.621045 0.301089 -0.150360
-1.741379 0.654871 0.020701
-1.299407 0.654871 -0.587624
-1.099533 0.301088 -0.526039
-0.556527 0.840613 -0.298493
-1.299407 0.654871 0.629025
-1.424912 0.301089 0.461717
-1.103966 0.942983 -0.526039
-1.622416 0.942982 -0.146142
-0.992580 1.271983 -0.058614
-1.533720 1.070194 0.171573
-1.245890 1.051402 0.464328
-0.126698 -0.950012 0.292990
-0.634076 -0.913385 0.020701
-0.052713 -0.806390 -0.479295
0.489814 -0.687138 -0.225527
0.634570 -0.479528 0.292990
0.828720 -0.009326 0.020701
-0.068397 -0.193220 1.017001
0.372617 0.044264 0.829717
-1.062670 -0.479527 -0.258474
-1.259058 0.097853 0.020701
-0.802955 0.044264 -0.788316
-0.742577 -0.479528 0.740449
-0.802955 0.044264 0.829717
-0.218787 0.568057 -0.871589
-0.920151 0.775664 -0.225527
-0.303639 1.038540 -0.251589
0.632333 0.568054 -0.258474
0.203739 1.001913 0.020701
0.312239 0.568055 0.740450
-0.450410 0.744999 0.744708
-1.064908 0.568054 0.292991
0.107412 -0.009325 -0.972097
-0.211551 -0.479529 -0.871590
3 0 1 2
3 1 3 4
3 4 3 5
3 2 4 6
3 4 5 6
3 7 8 9
3 10 7 9
3 5 10 9
3 8 6 9
3 6 5 9
3 2 6 8
3 11 7 10
3 0 8 7
3 0 2 8
3 5 3 10
3 10 3 11
3 11 0 7
3 1 4 2
3 1 11 3
3 1 0 11
3 12 13 14
3 15 16 13
3 12 14 17
3 18 12 19
3 20 18 21
3 22 20 23
3 14 22 24
3 12 17 19
3 18 19 25
3 22 23 24
3 14 24 17
3 26 27 28
3 28 29 30
3 28 27 29
3 27 31 29
3 31 25 29
3 29 25 30
3 25 32 30
3 30 32 28
3 32 26 28
3 17 24 26
3 24 27 26
3 24 23 27
3 23 31 27
3 21 25 31
3 19 32 25
3 19 17 32
3 17 26 32
3 23 21 31
3 23 20 21
3 21 18 25
3 13 22 14
3 13 16 22
3 16 20 22
3 16 18 20
3 16 15 18
3 15 12 18
3 15 13 12
3 33 34 35
3 36 37 34
3 33 35 38
3 39 33 40
3 41 39 42
3 43 41 44
3 35 43 45
3 39 40 46
3 35 45 38
3 40 47 48
3 49 50 48
3 50 51 48
3 50 52 51
3 52 46 51
3 51 46 48
3 46 40 48
3 48 47 49
3 38 49 47
3 38 45 49
3 45 50 49
3 44 52 50
3 42 46 52
3 33 47 40
3 33 38 47
3 45 44 50
3 45 43 44
3 44 42 52
3 44 41 42
3 42 39 46
3 34 43 35
3 34 37 43
3 37 41 43
3 37 39 41
3 37 36 39
3 36 33 39
3 36 34 33
3 53 54 55
3 56 54 57
3 53 55 58
3 56 57 59
3 55 56 60
3 61 58 62
3 63 61 64
3 57 63 65
3 56 59 60
3 55 60 66
3 63 64 65
3 57 65 59
3 67 68 69
3 68 70 69
3 69 70 71
3 70 72 71
3 72 66 71
3 71 73 69
3 71 66 73
3 73 67 69
3 59 65 68
3 65 70 68
3 65 64 70
3 64 72 70
3 62 66 72
3 60 73 66
3 60 67 73
3 60 59 67
3 59 68 67
3 64 62 72
3 64 61 62
3 62 58 66
3 58 55 66
3 54 63 57
3 54 53 63
3 53 61 63
3 53 58 61
3 55 54 56
3 74 75 76
3 74 76 77
3 78 74 79
3 80 78 81
3 82 80 83
3 78 79 84
3 79 85 86
3 87 88 86
3 88 89 86
3 89 84 86
3 84 79 86
3 86 85 87
3 77 87 85
3 77 76 87
3 76 88 87
3 83 89 88
3 81 84 89
3 74 85 79
3 74 77 85
3 76 83 88
3 76 82 83
3 83 81 89
3 83 80 81
3 81 78 84
3 75 82 76
3 75 90 82
3 90 80 82
3 90 78 80
3 90 75 78
3 75 74 78
3 91 92 93
3 92 94 95
3 91 93 96
3 94 91 97
3 98 95 99
3 100 101 102
3 101 103 102
3 103 104 102
3 102 104 105
3 105 100 102
3 105 106 100
3 96 100 106
3 96 93 100
3 93 101 100
3 99 103 101
3 107 104 103
3 97 105 104
3 91 106 105
3 91 96 106
3 93 99 101
3 93 98 99
3 99 107 103
3 99 95 107
3 107 97 104
3 107 95 97
3 95 94 97
3 97 91 105
3 92 98 93
3 92 95 98
3 94 92 91
3 108 109 110
3 111 109 112
3 110 111 113
3 114 115 116
3 117 116 118
3 110 113 119
3 120 119 115
3 121 122 123
3 118 121 123
3 113 118 123
3 124 125 123
3 125 113 123
3 123 122 124
3 115 124 122
3 115 119 124
3 119 125 124
3 119 113 125
3 112 118 113
3 118 116 121
3 116 122 121
3 116 115 122
3 120 110 119
3 113 111 112
3 112 109 118
3 109 117 118
3 117 114 116
3 114 120 115
3 108 110 120
3 110 109 111
3 108 117 109
3 114 108 120
3 108 114 117
3 126 127 128
3 126 128 129
3 130 129 131
3 132 130 133
3 134 135 136
3 137 138 135
3 139 140 141
3 142 139 143
3 144 142 143
3 140 145 141
3 140 146 145
3 145 143 141
3 145 144 143
3 143 139 141
3 135 138 146
3 138 145 146
3 132 144 145
3 132 133 144
3 131 142 144
3 147 139 142
3 136 140 139
3 136 135 140
3 135 146 140
3 138 132 145
3 138 137 132
3 133 131 144
3 133 130 131
3 131 147 142
3 131 129 147
3 129 148 147
3 147 136 139
3 147 148 136
3 148 134 136
3 134 137 135
3 127 126 137
3 126 132 137
3 126 130 132
3 126 129 130
3 128 148 129
3 134 127 137
3 128 127 148
3 127 134 148
